# xmcd CD database file
#
# Track frame offsets:
#	182
#	31485
#	53792
#	67117
#	94847
#	114942
#	141205
#	170695
#	186500
#	208505
#	227045
#	248435
#	268500
#	296200
#
# Disc length: 4299 seconds
#
# Revision: 0
# Processed by: cddbd v1.5PL3 Copyright (c) Steve Scherf et al.
# Submitted via: CDex 1.51
#
DISCID=d210c90e
DTITLE=Ron Surace - Nearly Blue
DYEAR=1999
DGENRE=Jazz
TTITLE0=Cheap Skate
TTITLE1=Labrynth
TTITLE2=Modal Mania
TTITLE3=Here and Now
TTITLE4=Samba II
TTITLE5=Visitor
TTITLE6=The Clone
TTITLE7=Riff Raff
TTITLE8=Nearly Blue
TTITLE9=Chiboppo Boppago
TTITLE10=Depression in B Flat
TTITLE11=Pac Man
TTITLE12=Witch
TTITLE13=El Nino
EXTD=YEAR: 1999
EXTT0=
EXTT1=
EXTT2=
EXTT3=
EXTT4=
EXTT5=
EXTT6=
EXTT7=
EXTT8=
EXTT9=
EXTT10=
EXTT11=
EXTT12=
EXTT13=
PLAYORDER=
